<?xml version="1.0" encoding="UTF-8" standalone="no"?>
<svg
   width="24"
   height="24"
   viewBox="0 0 24 24"
   fill="none"
   version="1.1"
   id="svg140"
   sodipodi:docname="abstra_logo.svg"
   inkscape:version="1.2.2 (b0a84865, 2022-12-01)"
   xmlns:inkscape="http://www.inkscape.org/namespaces/inkscape"
   xmlns:sodipodi="http://sodipodi.sourceforge.net/DTD/sodipodi-0.dtd"
   xmlns="http://www.w3.org/2000/svg"
   xmlns:svg="http://www.w3.org/2000/svg">
  <defs
     id="defs144" />
  <sodipodi:namedview
     id="namedview142"
     pagecolor="#ffffff"
     bordercolor="#999999"
     borderopacity="1"
     inkscape:showpageshadow="0"
     inkscape:pageopacity="0"
     inkscape:pagecheckerboard="0"
     inkscape:deskcolor="#d1d1d1"
     showgrid="false"
     inkscape:zoom="9.8333333"
     inkscape:cx="42.559322"
     inkscape:cy="12"
     inkscape:window-width="1436"
     inkscape:window-height="456"
     inkscape:window-x="0"
     inkscape:window-y="25"
     inkscape:window-maximized="0"
     inkscape:current-layer="svg140" />
  <g
     id="g2067"
     transform="matrix(0.86049857,0,0,0.86049857,-0.20635884,3.8268961)"
     style="stroke-width:1.16212">
    <path
       d="m 21.6791,10.7298 -1.8402,1.7373 c 0,0 4.9821,4.5316 5.2065,4.7425 0.2244,0.2109 1.8851,-1.5811 1.7056,-1.7373 -0.1795,-0.1562 -5.0719,-4.7425 -5.0719,-4.7425 z"
       fill="#e36c7c"
       id="path132"
       style="stroke-width:1.35052" />
    <path
       d="m 25.0899,5.6116 -4.8475,4.36686 -0.2693,0.23474 c -2.6032,2.4446 -2.757,2.7403 -3.7004,2.7733 l -0.0066,2e-4 c -0.2267,0.008 -0.7155,0.0252 -1.1155,-0.3289 -0.5835,-0.5165 -1.3465,-1.1739 -1.7056,-1.5026 -0.1941,-0.1777 -0.5244,-0.5179 -0.8079,-0.7512 -0.2408,-0.1983 -0.4039,-0.42265 -0.5835,-0.42265 -0.1795,0 -0.4937,0.28175 -0.9874,0.75125 -0.4937,0.4696 -1.57095,1.5026 -1.57095,1.5026 L 7.4755,14.0665 c 0,0 -2.58336,2.2979 -3.25662,2.8614 C 3.54562,17.4913 1.90432,15.7636 2.46841,15.2844 2.52278,15.2276 3.01453,14.8099 3.41377,14.4686 3.70083,14.2192 3.92968,14.0195 3.92968,14.0195 4.01945,13.9256 7.61016,10.6387 7.61016,10.6387 L 10.078,8.4179 c 0,0 0.9433,-1.0191 2.0654,-1.0191 0.3591,0 0.8191,0.04696 2.334,1.45562 0.4039,0.37565 0.6283,0.52121 1.1221,0.98607 0.1795,0.16901 0.4676,0.46951 0.5834,0.46951 0.1173,0 0.3591,-0.2347 0.5387,-0.39573 0,0 5.7844,-5.12117 6.5281,-5.89915 0.6284,-0.6574 2.3788,1.07995 1.8402,1.59648 z"
       fill="#e36c7c"
       id="path134"
       style="stroke-width:1.35052" />
    <path
       d="M 3.81808,2.71643 C 3.59366,2.89904 2.74875,3.68237 2.56133,3.89032 2.22095,4.26746 2.45385,4.42958 2.94758,4.85217 3.4413,5.27477 6.65105,8.19419 7.45046,8.94548 L 9.18644,7.29386 4.74294,3.20873 C 4.20433,2.71643 4.0425,2.53383 3.81808,2.71643 Z"
       fill="#e36c7c"
       id="path136"
       style="stroke-width:1.35052" />
  </g>
</svg>
